<?xml version="1.0" encoding="UTF-8"?>
<svg width="1200" height="800" xmlns="http://www.w3.org/2000/svg">
  <defs>
    <style>
      .title { font-family: Arial, sans-serif; font-size: 24px; font-weight: bold; text-anchor: middle; }
      .component { font-family: Arial, sans-serif; font-size: 14px; font-weight: bold; text-anchor: middle; }
      .service { font-family: Arial, sans-serif; font-size: 12px; text-anchor: middle; }
      .description { font-family: Arial, sans-serif; font-size: 10px; text-anchor: middle; }
      .flow-text { font-family: Arial, sans-serif; font-size: 10px; text-anchor: middle; }
      .external { fill: #E3F2FD; stroke: #1976D2; stroke-width: 2; }
      .controller { fill: #F3E5F5; stroke: #7B1FA2; stroke-width: 2; }
      .service-box { fill: #E8F5E8; stroke: #388E3C; stroke-width: 2; }
      .validation { fill: #FFF3E0; stroke: #F57C00; stroke-width: 2; }
      .storage { fill: #FFEBEE; stroke: #D32F2F; stroke-width: 2; }
      .arrow { stroke: #424242; stroke-width: 2; fill: none; marker-end: url(#arrowhead); }
      .bidirectional { stroke: #424242; stroke-width: 2; fill: none; marker-end: url(#arrowhead); marker-start: url(#arrowhead); }
    </style>
    <marker id="arrowhead" markerWidth="10" markerHeight="7" refX="9" refY="3.5" orient="auto">
      <polygon points="0 0, 10 3.5, 0 7" fill="#424242" />
    </marker>
  </defs>

  <!-- Title -->
  <text x="600" y="30" class="title" fill="#1565C0">Arquitetura do Email-to-FTP Microservice</text>

  <!-- External Systems -->
  <rect x="50" y="80" width="150" height="80" class="external" rx="8"/>
  <text x="125" y="105" class="component" fill="#1976D2">Email Server</text>
  <text x="125" y="120" class="service" fill="#1976D2">(IMAP)</text>
  <text x="125" y="135" class="description" fill="#1976D2">Outlook/Exchange</text>
  <text x="125" y="150" class="description" fill="#1976D2">Caixa de entrada</text>

  <rect x="1000" y="80" width="150" height="80" class="external" rx="8"/>
  <text x="1075" y="105" class="component" fill="#1976D2">FTP Server</text>
  <text x="1075" y="120" class="service" fill="#1976D2">(Remoto)</text>
  <text x="1075" y="135" class="description" fill="#1976D2">Servidor de destino</text>
  <text x="1075" y="150" class="description" fill="#1976D2">Upload de arquivos</text>

  <!-- REST Controller -->
  <rect x="400" y="200" width="200" height="60" class="controller" rx="8"/>
  <text x="500" y="220" class="component" fill="#7B1FA2">EmailToFtpController</text>
  <text x="500" y="235" class="service" fill="#7B1FA2">REST API Endpoints</text>
  <text x="500" y="250" class="description" fill="#7B1FA2">/api/v1/email-to-ftp</text>

  <!-- Main Orchestrator Service -->
  <rect x="400" y="320" width="200" height="80" class="service-box" rx="8"/>
  <text x="500" y="345" class="component" fill="#388E3C">EmailToFtpService</text>
  <text x="500" y="360" class="service" fill="#388E3C">@Scheduled + Orquestrador</text>
  <text x="500" y="375" class="description" fill="#388E3C">Processamento automático</text>
  <text x="500" y="390" class="description" fill="#388E3C">Controle de fluxo</text>

  <!-- Service Layer -->
  <rect x="100" y="480" width="150" height="80" class="service-box" rx="8"/>
  <text x="175" y="505" class="component" fill="#388E3C">EmailService</text>
  <text x="175" y="520" class="service" fill="#388E3C">Conexão IMAP</text>
  <text x="175" y="535" class="description" fill="#388E3C">Busca emails</text>
  <text x="175" y="550" class="description" fill="#388E3C">Extrai anexos</text>

  <rect x="300" y="480" width="180" height="80" class="validation" rx="8"/>
  <text x="390" y="505" class="component" fill="#F57C00">AttachmentValidationService</text>
  <text x="390" y="520" class="service" fill="#F57C00">Validação de Anexos</text>
  <text x="390" y="535" class="description" fill="#F57C00">PDF/XML apenas</text>
  <text x="390" y="550" class="description" fill="#F57C00">Nomenclatura P_ ou X_</text>

  <rect x="520" y="480" width="150" height="80" class="service-box" rx="8"/>
  <text x="595" y="505" class="component" fill="#388E3C">FtpService</text>
  <text x="595" y="520" class="service" fill="#388E3C">Upload FTP</text>
  <text x="595" y="535" class="description" fill="#388E3C">Conexão segura</text>
  <text x="595" y="550" class="description" fill="#388E3C">Transfer. binária</text>

  <rect x="720" y="480" width="180" height="80" class="service-box" rx="8"/>
  <text x="810" y="505" class="component" fill="#388E3C">EmailResponseService</text>
  <text x="810" y="520" class="service" fill="#388E3C">Resposta Automática</text>
  <text x="810" y="535" class="description" fill="#388E3C">Email de correção</text>
  <text x="810" y="550" class="description" fill="#388E3C">Notificações</text>

  <!-- Configuration Layer -->
  <rect x="250" y="620" width="120" height="60" class="storage" rx="8"/>
  <text x="310" y="640" class="component" fill="#D32F2F">EmailProperties</text>
  <text x="310" y="655" class="service" fill="#D32F2F">Config IMAP</text>
  <text x="310" y="670" class="description" fill="#D32F2F">application.properties</text>

  <rect x="430" y="620" width="120" height="60" class="storage" rx="8"/>
  <text x="490" y="640" class="component" fill="#D32F2F">FtpProperties</text>
  <text x="490" y="655" class="service" fill="#D32F2F">Config FTP</text>
  <text x="490" y="670" class="description" fill="#D32F2F">application.properties</text>

  <!-- Data Models -->
  <rect x="950" y="450" width="120" height="140" class="storage" rx="8"/>
  <text x="1010" y="470" class="component" fill="#D32F2F">Modelos</text>
  <text x="1010" y="490" class="service" fill="#D32F2F">EmailMessage</text>
  <text x="1010" y="505" class="service" fill="#D32F2F">EmailAttachment</text>
  <text x="1010" y="520" class="service" fill="#D32F2F">ValidationResult</text>
  <text x="1010" y="550" class="description" fill="#D32F2F">DTOs para</text>
  <text x="1010" y="565" class="description" fill="#D32F2F">transferência</text>
  <text x="1010" y="580" class="description" fill="#D32F2F">de dados</text>

  <!-- Flow Arrows -->
  <!-- Email Server to EmailService -->
  <line x1="200" y1="120" x2="175" y2="480" class="arrow"/>
  <text x="150" y="300" class="flow-text" fill="#424242">1. Busca emails</text>
  <text x="150" y="315" class="flow-text" fill="#424242">com anexos</text>

  <!-- Controller to Main Service -->
  <line x1="500" y1="260" x2="500" y2="320" class="arrow"/>
  <text x="520" y="285" class="flow-text" fill="#424242">API calls</text>

  <!-- Main Service to EmailService -->
  <line x1="450" y1="360" x2="225" y2="480" class="arrow"/>
  <text x="300" y="420" class="flow-text" fill="#424242">2. Obter emails</text>

  <!-- EmailService to Validation -->
  <line x1="250" y1="520" x2="300" y2="520" class="arrow"/>
  <text x="275" y="510" class="flow-text" fill="#424242">3. Validar</text>

  <!-- Validation back to Main Service -->
  <line x1="390" y1="480" x2="450" y2="400" class="arrow"/>
  <text x="430" y="440" class="flow-text" fill="#424242">4. Resultado</text>

  <!-- Main Service to FTP Service -->
  <line x1="550" y1="360" x2="595" y2="480" class="arrow"/>
  <text x="590" y="420" class="flow-text" fill="#424242">5. Upload</text>
  <text x="590" y="435" class="flow-text" fill="#424242">válidos</text>

  <!-- FTP Service to FTP Server -->
  <line x1="670" y1="520" x2="1000" y2="120" class="arrow"/>
  <text x="835" y="320" class="flow-text" fill="#424242">6. Transfer.</text>
  <text x="835" y="335" class="flow-text" fill="#424242">arquivos</text>

  <!-- Main Service to Email Response Service -->
  <line x1="550" y1="380" x2="720" y2="520" class="arrow"/>
  <text x="650" y="450" class="flow-text" fill="#424242">7. Notificar</text>
  <text x="650" y="465" class="flow-text" fill="#424242">erros</text>

  <!-- Email Response back to Email Server -->
  <line x1="810" y1="480" x2="200" y2="160" class="arrow"/>
  <text x="500" y="300" class="flow-text" fill="#424242">8. Email de correção</text>

  <!-- Configuration connections -->
  <line x1="310" y1="620" x2="200" y2="560" class="arrow" stroke-dasharray="5,5"/>
  <line x1="490" y1="620" x2="595" y2="560" class="arrow" stroke-dasharray="5,5"/>

  <!-- Scheduler indication -->
  <circle cx="380" cy="340" r="15" fill="#FF5722" stroke="#D84315" stroke-width="2"/>
  <text x="380" y="345" class="flow-text" fill="white" font-weight="bold">⏰</text>
  <text x="320" y="300" class="flow-text" fill="#D84315">@Scheduled</text>
  <text x="320" y="315" class="flow-text" fill="#D84315">(automático)</text>

  <!-- Legend -->
  <rect x="50" y="720" width="400" height="60" fill="#F5F5F5" stroke="#BDBDBD" stroke-width="1" rx="4"/>
  <text x="250" y="740" class="component" fill="#424242">Legenda</text>
  <rect x="70" y="750" width="15" height="15" class="external"/>
  <text x="95" y="762" class="description" fill="#424242">Sistemas Externos</text>
  <rect x="170" y="750" width="15" height="15" class="service-box"/>
  <text x="195" y="762" class="description" fill="#424242">Serviços</text>
  <rect x="240" y="750" width="15" height="15" class="validation"/>
  <text x="265" y="762" class="description" fill="#424242">Validação</text>
  <rect x="320" y="750" width="15" height="15" class="storage"/>
  <text x="345" y="762" class="description" fill="#424242">Configuração/Dados</text>

  <!-- Processing Stats Box -->
  <rect x="650" y="200" width="200" height="100" fill="#E1F5FE" stroke="#0277BD" stroke-width="2" rx="8"/>
  <text x="750" y="220" class="component" fill="#0277BD">Métricas em Tempo Real</text>
  <text x="750" y="240" class="description" fill="#0277BD">• Emails processados</text>
  <text x="750" y="255" class="description" fill="#0277BD">• Anexos transferidos</text>
  <text x="750" y="270" class="description" fill="#0277BD">• Uploads falhados</text>
  <text x="750" y="285" class="description" fill="#0277BD">• Correções enviadas</text>

</svg>
